<?xml version="1.0" encoding="utf-8"?>
<!-- Generator: Adobe Illustrator 15.0.0, SVG Export Plug-In . SVG Version: 6.00 Build 0)  -->
<!DOCTYPE svg PUBLIC "-//W3C//DTD SVG 1.1//EN" "http://www.w3.org/Graphics/SVG/1.1/DTD/svg11.dtd">
<svg version="1.1" xmlns="http://www.w3.org/2000/svg" xmlns:xlink="http://www.w3.org/1999/xlink" x="0px" y="0px" width="16px"
	 height="16px" viewBox="0 0 16 16" enable-background="new 0 0 16 16" xml:space="preserve">
<g id="Layer_1" display="none">
	<g display="inline">
		<g>
			<path fill="#1756A5" d="M8,1.5c3.584,0,6.5,2.916,6.5,6.5s-2.916,6.5-6.5,6.5S1.5,11.584,1.5,8S4.416,1.5,8,1.5 M8,0.5
				C3.858,0.5,0.5,3.858,0.5,8c0,4.141,3.358,7.5,7.5,7.5c4.143,0,7.5-3.359,7.5-7.5C15.5,3.858,12.143,0.5,8,0.5L8,0.5z"/>
		</g>
		<rect x="7.5" y="3" fill="#1756A5" width="1" height="10"/>
		<rect x="3" y="7.5" fill="#1756A5" width="10" height="1"/>
	</g>
</g>
<g id="Layer_2" display="none">
	<g display="inline">
		<path fill="#00AB51" d="M8,1.5c3.584,0,6.5,2.916,6.5,6.5s-2.916,6.5-6.5,6.5S1.5,11.584,1.5,8S4.416,1.5,8,1.5 M8,0.5
			C3.858,0.5,0.5,3.858,0.5,8c0,4.141,3.358,7.5,7.5,7.5c4.143,0,7.5-3.359,7.5-7.5C15.5,3.858,12.143,0.5,8,0.5L8,0.5z"/>
	</g>
	<g display="inline">
		<polygon fill="#00AB51" points="5.965,12.167 3.511,9.51 4.203,8.871 5.994,10.81 11.824,5.009 12.488,5.676 		"/>
	</g>
</g>
<g id="Layer_3">
	<g id="Layer_4">
	</g>
	<g>
		<path fill="#F78D28" d="M8,1.5c3.584,0,6.5,2.916,6.5,6.5s-2.916,6.5-6.5,6.5S1.5,11.584,1.5,8S4.416,1.5,8,1.5 M8,0.5
			C3.858,0.5,0.5,3.858,0.5,8c0,4.141,3.358,7.5,7.5,7.5c4.143,0,7.5-3.359,7.5-7.5C15.5,3.858,12.143,0.5,8,0.5L8,0.5z"/>
	</g>
	<g>
		<rect x="7.5" y="3" transform="matrix(-0.7042 0.71 -0.71 -0.7042 19.3136 7.9531)" fill="#F78D28" width="1" height="9.999"/>
		<rect x="7.5" y="3" transform="matrix(0.7042 0.71 -0.71 0.7042 8.0469 -3.3136)" fill="#F78D28" width="1" height="9.999"/>
	</g>
</g>
</svg>
