<?xml version="1.0" encoding="utf-8"?>
<!-- Generator: Adobe Illustrator 16.0.0, SVG Export Plug-In . SVG Version: 6.00 Build 0)  -->
<!DOCTYPE svg PUBLIC "-//W3C//DTD SVG 1.1//EN" "http://www.w3.org/Graphics/SVG/1.1/DTD/svg11.dtd">
<svg version="1.1" id="Layer_1" xmlns="http://www.w3.org/2000/svg" xmlns:xlink="http://www.w3.org/1999/xlink" x="0px" y="0px"
	 width="16px" height="16px" viewBox="0 0 16 16" enable-background="new 0 0 16 16" xml:space="preserve">
<g>
	<g>
		<path fill="#1756A5" d="M8,1.5c3.584,0,6.5,2.916,6.5,6.5s-2.916,6.5-6.5,6.5S1.5,11.584,1.5,8S4.416,1.5,8,1.5 M8,0.5
			C3.858,0.5,0.5,3.858,0.5,8c0,4.141,3.358,7.5,7.5,7.5c4.142,0,7.5-3.359,7.5-7.5C15.5,3.858,12.142,0.5,8,0.5L8,0.5z"/>
	</g>
	<rect x="7.5" y="3" fill="#1756A5" width="1" height="10"/>
	<rect x="3" y="7.5" fill="#1756A5" width="10" height="1"/>
</g>
</svg>
