<?xml version="1.0" encoding="utf-8"?>
<!-- Generator: Adobe Illustrator 16.0.0, SVG Export Plug-In . SVG Version: 6.00 Build 0)  -->
<!DOCTYPE svg PUBLIC "-//W3C//DTD SVG 1.1//EN" "http://www.w3.org/Graphics/SVG/1.1/DTD/svg11.dtd">
<svg version="1.1" id="Layer_1" xmlns="http://www.w3.org/2000/svg" xmlns:xlink="http://www.w3.org/1999/xlink" x="0px" y="0px"
	 width="196.991px" height="34.674px" viewBox="81.704 41.059 196.991 34.674"
	 enable-background="new 81.704 41.059 196.991 34.674" xml:space="preserve">
<g id="Grayscale">
	<polygon fill="#FFFFFF" points="128.077,47.151 128.077,69.809 120.962,69.809 120.962,47.151 	"/>
	<polygon fill="#FFFFFF" points="130.501,47.142 146.352,47.142 146.352,52.595 137.604,52.595 137.604,56.265 145.385,56.265 
		145.385,61.718 137.604,61.718 137.604,69.806 130.501,69.806 	"/>
	<path fill="#FFFFFF" d="M163.513,69.23c-1.323,0.456-3.286,0.91-5.087,0.91c-6.145,0-11.072-3.96-11.072-12.038
		c0-7.592,5.138-11.389,11.072-11.389c1.962,0,3.126,0.292,5.036,0.714v5.97c-1.167-0.455-2.36-0.844-3.551-0.844
		c-3.02,0-5.298,1.979-5.298,5.679c0,3.893,2.119,5.871,5.058,5.871c1.299,0,2.544-0.325,3.842-0.875V69.23L163.513,69.23z"/>
	<path fill="#FFFFFF" d="M182.148,66.792h1.092l-1.3,4.53h-1.09l-0.791-2.841l-0.8,2.841h-1.091l-1.299-4.53h1.123l0.761,3.304
		l0.913-3.304h0.811l0.883,3.304L182.148,66.792L182.148,66.792z M185.404,70.514c0.385,0,1.026-0.189,1.026-1.451
		c0-1.265-0.642-1.453-1.026-1.453c-0.666,0-1.031,0.517-1.031,1.453C184.373,70,184.738,70.514,185.404,70.514 M185.404,66.752
		c0.979,0,2.026,0.608,2.026,2.311c0,1.691-1.048,2.294-2.026,2.294c-0.979,0-2.028-0.603-2.028-2.294
		C183.375,67.36,184.424,66.752,185.404,66.752 M188.943,68.908h0.538c0.535,0,0.87-0.25,0.87-0.652
		c0-0.422-0.294-0.666-0.799-0.666h-0.609V68.908L188.943,68.908z M190.938,69.947c0.16,0.323,0.299,0.604,0.617,0.604h0.228v0.745
		l-0.033,0.009c-0.007,0-0.173,0.046-0.468,0.046c-0.762,0-0.994-0.522-1.202-0.985c-0.17-0.379-0.313-0.707-0.714-0.707h-0.423
		v1.662h-0.965v-4.529h1.604c1.174,0,1.721,0.458,1.721,1.44c0,0.607-0.365,0.982-0.728,1.144
		C190.736,69.528,190.837,69.741,190.938,69.947 M193.203,66.792h-0.962v4.53h2.923v-0.803h-1.961V66.792L193.203,66.792z
		 M196.577,70.518h0.563c0.693,0,1.11-0.521,1.11-1.4c0-1.013-0.439-1.527-1.308-1.527h-0.366V70.518L196.577,70.518z
		 M196.958,66.792c1.41,0,2.251,0.875,2.251,2.339c0,1.392-0.753,2.189-2.06,2.189h-1.539v-4.529H196.958L196.958,66.792z
		 M201.897,70.518h0.756c0.491,0,0.721-0.184,0.721-0.583c0-0.485-0.402-0.587-0.743-0.587h-0.733V70.518L201.897,70.518z
		 M202.556,68.642c0.401,0,0.59-0.17,0.59-0.532c0-0.343-0.24-0.52-0.71-0.52h-0.539v1.052H202.556L202.556,68.642z M203.628,68.933
		c0.35,0.101,0.803,0.421,0.803,1.101c0,0.817-0.577,1.288-1.59,1.288h-1.909v-4.53h1.724c0.981,0,1.479,0.408,1.479,1.217
		C204.134,68.633,203.85,68.855,203.628,68.933 M206.664,68.027l-0.49,1.426h0.992L206.664,68.027L206.664,68.027z M207.159,66.822
		l1.649,4.5h-1.003l-0.387-1.111h-1.51l-0.374,1.111h-1.011l1.665-4.53h0.955L207.159,66.822L207.159,66.822z M211.627,69.589
		l-1.582-2.797h-0.979v4.53h0.966V68.62l1.576,2.701h0.985v-4.53h-0.966V69.589L211.627,69.589z M217.083,66.792h-1.145
		l-1.502,2.039v-2.039h-0.979v4.53h0.979v-2.085l1.538,2.085h1.159l-1.752-2.284L217.083,66.792L217.083,66.792z M219.972,69.664
		h0.995v0.052c0,0.292-0.104,0.785-0.799,0.785c-0.654,0-1.047-0.538-1.047-1.438c0-0.925,0.376-1.453,1.028-1.453
		c0.778,0,0.805,0.785,0.805,0.817v0.053l0.899-0.14V68.3c0-0.328-0.289-1.548-1.719-1.548c-1.275,0-2.01,0.843-2.01,2.311
		c0,1.438,0.756,2.294,2.023,2.294c1.274,0,1.726-0.887,1.726-1.647v-0.786h-1.904v0.741H219.972z M223.504,68.908h0.536
		c0.538,0,0.869-0.25,0.869-0.652c0-0.422-0.289-0.666-0.798-0.666h-0.605v1.318H223.504z M225.5,69.947
		c0.159,0.323,0.298,0.604,0.615,0.604h0.229v0.745l-0.03,0.009c-0.01,0-0.177,0.046-0.472,0.046c-0.761,0-0.994-0.522-1.199-0.985
		c-0.171-0.379-0.313-0.707-0.712-0.707h-0.424v1.662h-0.968v-4.529h1.606c1.171,0,1.719,0.458,1.719,1.44
		c0,0.607-0.363,0.982-0.729,1.144C225.294,69.528,225.399,69.741,225.5,69.947 M228.526,70.514c0.382,0,1.028-0.189,1.028-1.451
		c0-1.265-0.646-1.453-1.028-1.453c-0.667,0-1.033,0.517-1.033,1.453C227.492,70,227.859,70.514,228.526,70.514 M228.526,66.752
		c0.978,0,2.021,0.608,2.021,2.311c0,1.691-1.044,2.294-2.021,2.294c-0.981,0-2.03-0.603-2.03-2.294
		C226.496,67.36,227.543,66.752,228.526,66.752 M233.697,69.504c0,0.666-0.253,0.991-0.778,0.991c-0.529,0-0.799-0.334-0.799-0.991
		v-2.712h-0.963v2.651c-0.003,0.647,0.157,1.14,0.478,1.465c0.299,0.297,0.732,0.449,1.284,0.449c0.796,0,1.744-0.331,1.744-1.914
		v-2.651h-0.966V69.504L233.697,69.504z M236.438,69.08h0.576c0.559,0,0.843-0.248,0.843-0.729c0-0.49-0.31-0.762-0.875-0.762
		h-0.545L236.438,69.08L236.438,69.08z M237.053,66.792c1.145,0,1.776,0.553,1.776,1.56c0,0.951-0.624,1.516-1.662,1.516h-0.729
		v1.454h-0.964v-4.53H237.053L237.053,66.792z"/>
	<polygon fill="#FFFFFF" points="177.301,46.008 179.131,46.008 179.131,52.887 177.301,52.887 	"/>
	<path fill="#FFFFFF" d="M180.316,47.753h1.615V48.7h0.02c0.356-0.739,1.064-1.064,1.873-1.064c1.397,0,1.96,0.985,1.96,2.049v3.203
		h-1.775v-2.484c0-0.964-0.332-1.291-0.814-1.291c-0.731,0-1.106,0.503-1.106,1.607v2.167h-1.772L180.316,47.753L180.316,47.753z"/>
	<path fill="#FFFFFF" d="M186.336,47.753h1.045V46.6l1.742-0.542v1.695h1.241v1.242h-1.241v1.891c0,0.622,0.146,0.937,0.708,0.937
		c0.181,0,0.368-0.04,0.546-0.069l0.059,1.154c-0.336,0.039-0.671,0.098-1.114,0.098c-1.588,0-1.97-0.701-1.97-1.922v-2.089h-1.014
		v-1.242H186.336z"/>
	<path fill="#FFFFFF" d="M194.562,49.832c0-0.59-0.273-1.074-0.982-1.074c-0.643,0-0.948,0.484-0.988,1.074H194.562L194.562,49.832z
		 M192.613,50.837c0.096,0.709,0.641,0.984,1.507,0.984c0.482,0,1.033-0.107,1.565-0.394v1.251c-0.569,0.227-1.22,0.326-1.881,0.326
		c-1.697,0-2.986-0.997-2.986-2.69c0-1.694,1.156-2.681,2.749-2.681c1.902,0,2.593,1.349,2.593,2.878v0.325H192.613L192.613,50.837z
		"/>
	<path fill="#FFFFFF" d="M200.652,49.172c-0.2-0.061-0.394-0.061-0.603-0.061c-0.827,0-1.289,0.602-1.289,1.607v2.168h-1.775v-5.134
		h1.618v0.946h0.021c0.303-0.651,0.745-1.064,1.515-1.064c0.208,0,0.423,0.03,0.603,0.06L200.652,49.172L200.652,49.172z"/>
	<path fill="#FFFFFF" d="M201.436,47.753h1.618V48.7h0.019c0.355-0.739,1.064-1.064,1.873-1.064c1.399,0,1.96,0.985,1.96,2.049
		v3.203h-1.771v-2.484c0-0.964-0.336-1.291-0.817-1.291c-0.73,0-1.107,0.503-1.107,1.607v2.167h-1.773V47.753L201.436,47.753z"/>
	<path fill="#FFFFFF" d="M210.046,51.822c0.674,0,1.098-0.611,1.098-1.211c-0.227-0.012-0.483-0.031-0.749-0.031
		c-0.603,0-1.075,0.188-1.075,0.682C209.32,51.615,209.634,51.822,210.046,51.822L210.046,51.822z M211.27,52.887
		c-0.011-0.276-0.041-0.541-0.041-0.808h-0.017c-0.405,0.64-0.896,0.926-1.628,0.926c-1.012,0-1.919-0.503-1.919-1.617
		c0-1.567,1.702-1.753,2.65-1.753c0.284,0,0.602,0.029,0.828,0.068c-0.012-0.699-0.533-0.887-1.173-0.887
		c-0.574,0-1.146,0.109-1.635,0.384L208.306,48c0.632-0.255,1.289-0.365,2.05-0.365c1.308,0,2.44,0.561,2.44,2.127v1.912
		c0,0.405,0.021,0.808,0.101,1.213H211.27L211.27,52.887z"/>
	<path fill="#FFFFFF" d="M213.382,47.753h1.04V46.6l1.744-0.542v1.695h1.242v1.242h-1.242v1.891c0,0.622,0.149,0.937,0.709,0.937
		c0.179,0,0.366-0.04,0.544-0.069l0.059,1.154c-0.335,0.039-0.668,0.098-1.114,0.098c-1.585,0-1.971-0.701-1.971-1.922v-2.089
		h-1.011V47.753L213.382,47.753z"/>
	<path fill="#FFFFFF" d="M218.316,47.753h1.773v5.134h-1.773V47.753L218.316,47.753z M220.089,46.916h-1.773v-1.301h1.773V46.916
		L220.089,46.916z"/>
	<path fill="#FFFFFF" d="M225.194,50.324c0-0.769-0.336-1.448-1.155-1.448c-0.816,0-1.151,0.679-1.151,1.448
		c0,0.758,0.335,1.438,1.151,1.438C224.858,51.762,225.194,51.083,225.194,50.324L225.194,50.324z M221.053,50.324
		c0-1.704,1.292-2.689,2.985-2.689c1.694,0,2.986,0.985,2.986,2.689c0,1.695-1.292,2.681-2.986,2.681
		C222.345,53.005,221.053,52.02,221.053,50.324L221.053,50.324z"/>
	<path fill="#FFFFFF" d="M227.785,47.753h1.616V48.7h0.017c0.354-0.739,1.063-1.064,1.872-1.064c1.401,0,1.962,0.985,1.962,2.049
		v3.203h-1.775v-2.484c0-0.964-0.334-1.291-0.817-1.291c-0.728,0-1.102,0.503-1.102,1.607v2.167h-1.772V47.753L227.785,47.753z"/>
	<path fill="#FFFFFF" d="M236.395,51.822c0.671,0,1.094-0.611,1.094-1.211c-0.229-0.012-0.483-0.031-0.748-0.031
		c-0.602,0-1.076,0.188-1.076,0.682C235.665,51.615,235.981,51.822,236.395,51.822L236.395,51.822z M237.616,52.887
		c-0.009-0.276-0.038-0.541-0.038-0.808h-0.021c-0.403,0.64-0.896,0.926-1.623,0.926c-1.02,0-1.925-0.503-1.925-1.617
		c0-1.567,1.704-1.753,2.652-1.753c0.285,0,0.599,0.029,0.827,0.068c-0.01-0.699-0.532-0.887-1.174-0.887
		c-0.568,0-1.143,0.109-1.634,0.384L234.65,48c0.633-0.255,1.293-0.365,2.05-0.365c1.311,0,2.445,0.561,2.445,2.127v1.912
		c0,0.405,0.019,0.808,0.095,1.213H237.616L237.616,52.887z"/>
	<polygon fill="#FFFFFF" points="240.385,45.498 242.16,45.498 242.16,52.887 240.385,52.887 	"/>
	<polygon fill="#FFFFFF" points="177.313,55.353 181.914,55.353 181.914,56.653 179.145,56.653 179.145,58.159 181.797,58.159 
		181.797,59.461 179.145,59.461 179.145,62.229 177.313,62.229 	"/>
	<path fill="#FFFFFF" d="M182.859,57.095h1.775v5.133h-1.775V57.095L182.859,57.095z M184.634,56.259h-1.775v-1.3h1.775V56.259
		L184.634,56.259z"/>
	<path fill="#FFFFFF" d="M185.845,57.095h1.616v0.948h0.02c0.354-0.74,1.063-1.066,1.869-1.066c1.403,0,1.965,0.985,1.965,2.051v3.2
		h-1.774v-2.482c0-0.966-0.336-1.291-0.819-1.291c-0.73,0-1.102,0.503-1.102,1.605v2.167h-1.774V57.095L185.845,57.095z"/>
	<path fill="#FFFFFF" d="M194.457,61.166c0.67,0,1.096-0.609,1.096-1.213c-0.229-0.009-0.484-0.028-0.75-0.028
		c-0.602,0-1.074,0.187-1.074,0.68C193.728,60.959,194.042,61.166,194.457,61.166L194.457,61.166z M195.678,62.229
		c-0.009-0.275-0.041-0.54-0.041-0.807h-0.018c-0.404,0.639-0.896,0.926-1.627,0.926c-1.015,0-1.922-0.502-1.922-1.618
		c0-1.565,1.705-1.752,2.653-1.752c0.284,0,0.599,0.03,0.828,0.067c-0.012-0.698-0.533-0.887-1.173-0.887
		c-0.572,0-1.145,0.11-1.638,0.386l-0.028-1.203c0.63-0.254,1.289-0.364,2.047-0.364c1.312,0,2.447,0.562,2.447,2.129v1.91
		c0,0.406,0.016,0.811,0.099,1.213H195.678L195.678,62.229z"/>
	<path fill="#FFFFFF" d="M198.241,57.095h1.616v0.948h0.019c0.356-0.74,1.063-1.066,1.871-1.066c1.4,0,1.961,0.985,1.961,2.051v3.2
		h-1.771v-2.482c0-0.966-0.337-1.291-0.82-1.291c-0.729,0-1.103,0.503-1.103,1.605v2.167h-1.772V57.095L198.241,57.095z"/>
	<path fill="#FFFFFF" d="M208.732,58.565c-0.324-0.198-0.649-0.287-1.072-0.287c-0.77,0-1.359,0.533-1.359,1.419
		c0,0.818,0.688,1.35,1.458,1.35c0.402,0,0.807-0.088,1.102-0.247l0.041,1.321c-0.442,0.148-0.975,0.228-1.449,0.228
		c-1.694,0-2.986-0.987-2.986-2.682c0-1.704,1.293-2.689,2.986-2.689c0.533,0,1.006,0.09,1.408,0.286L208.732,58.565L208.732,58.565
		z"/>
	<path fill="#FFFFFF" d="M213.039,59.175c0-0.591-0.275-1.074-0.987-1.074c-0.638,0-0.944,0.482-0.981,1.074H213.039L213.039,59.175
		z M211.089,60.181c0.099,0.707,0.64,0.985,1.507,0.985c0.482,0,1.032-0.109,1.564-0.393v1.251c-0.57,0.226-1.222,0.324-1.879,0.324
		c-1.694,0-2.988-0.997-2.988-2.689c0-1.697,1.151-2.682,2.75-2.682c1.902,0,2.591,1.351,2.591,2.878v0.325H211.089L211.089,60.181z
		"/>
	<path fill="#FFFFFF" d="M224.201,62.071c-0.522,0.126-1.104,0.277-2.039,0.277c-1.833,0-3.949-0.926-3.949-3.528
		c0-2.394,1.674-3.586,3.939-3.586c0.701,0,1.381,0.159,2.039,0.355l-0.147,1.486c-0.592-0.325-1.164-0.482-1.794-0.482
		c-1.299,0-2.146,0.945-2.146,2.227c0,1.35,0.956,2.167,2.295,2.167c0.602,0,1.213-0.158,1.714-0.355L224.201,62.071L224.201,62.071
		z"/>
	<path fill="#FFFFFF" d="M228.746,59.667c0-0.767-0.336-1.446-1.153-1.446c-0.818,0-1.153,0.679-1.153,1.446
		c0,0.76,0.334,1.438,1.153,1.438C228.41,61.105,228.746,60.427,228.746,59.667L228.746,59.667z M224.604,59.667
		c0-1.705,1.293-2.69,2.988-2.69c1.691,0,2.981,0.985,2.981,2.69c0,1.694-1.29,2.681-2.981,2.681
		C225.897,62.348,224.604,61.361,224.604,59.667L224.604,59.667z"/>
	<path fill="#FFFFFF" d="M235.002,58.515c-0.2-0.06-0.396-0.06-0.604-0.06c-0.824,0-1.288,0.602-1.288,1.605v2.167h-1.774v-5.133
		h1.614v0.948h0.021c0.306-0.65,0.748-1.066,1.518-1.066c0.207,0,0.422,0.03,0.602,0.061L235.002,58.515L235.002,58.515z"/>
	<path fill="#FFFFFF" d="M238.519,58.338c-0.65,0-1.083,0.57-1.083,1.338c0,0.75,0.493,1.312,1.083,1.312
		c0.671,0,1.074-0.561,1.074-1.38C239.593,58.928,239.208,58.338,238.519,58.338L238.519,58.338z M235.664,57.095h1.633v0.926h0.021
		c0.355-0.719,1.103-1.045,1.911-1.045c1.419,0,2.199,1.35,2.199,2.593c0,1.516-0.819,2.778-2.346,2.778
		c-0.624,0-1.292-0.228-1.625-0.838h-0.021v2.789h-1.772V57.095L235.664,57.095z"/>
	<path fill="#FFFFFF" d="M246.077,59.667c0-0.767-0.335-1.446-1.153-1.446c-0.816,0-1.151,0.679-1.151,1.446
		c0,0.76,0.335,1.438,1.151,1.438C245.741,61.105,246.077,60.427,246.077,59.667L246.077,59.667z M241.937,59.667
		c0-1.705,1.292-2.69,2.986-2.69s2.985,0.985,2.985,2.69c0,1.694-1.291,2.681-2.985,2.681S241.937,61.361,241.937,59.667
		L241.937,59.667z"/>
	<path fill="#FFFFFF" d="M252.333,58.515c-0.195-0.06-0.392-0.06-0.602-0.06c-0.828,0-1.289,0.602-1.289,1.605v2.167h-1.775v-5.133
		h1.618v0.948h0.019c0.305-0.65,0.749-1.066,1.516-1.066c0.207,0,0.426,0.03,0.603,0.061L252.333,58.515L252.333,58.515z"/>
	<path fill="#FFFFFF" d="M255.083,61.166c0.669,0,1.09-0.609,1.09-1.213c-0.224-0.009-0.481-0.028-0.746-0.028
		c-0.603,0-1.074,0.187-1.074,0.68C254.353,60.959,254.669,61.166,255.083,61.166L255.083,61.166z M256.304,62.229
		c-0.01-0.275-0.04-0.54-0.04-0.807h-0.02c-0.405,0.639-0.898,0.926-1.627,0.926c-1.015,0-1.921-0.502-1.921-1.618
		c0-1.565,1.704-1.752,2.649-1.752c0.288,0,0.604,0.03,0.827,0.067c-0.008-0.698-0.529-0.887-1.169-0.887
		c-0.572,0-1.146,0.11-1.638,0.386l-0.03-1.203c0.633-0.254,1.291-0.364,2.052-0.364c1.311,0,2.444,0.562,2.444,2.129v1.91
		c0,0.406,0.019,0.811,0.097,1.213H256.304L256.304,62.229z"/>
	<path fill="#FFFFFF" d="M258.412,57.095h1.045v-1.149l1.742-0.544v1.693h1.241v1.243h-1.241v1.89c0,0.621,0.148,0.938,0.711,0.938
		c0.176,0,0.362-0.041,0.539-0.069l0.061,1.153c-0.334,0.041-0.67,0.099-1.111,0.099c-1.586,0-1.971-0.702-1.971-1.921v-2.088
		h-1.016V57.095L258.412,57.095z"/>
	<path fill="#FFFFFF" d="M263.348,57.095h1.774v5.133h-1.774V57.095L263.348,57.095z M265.123,56.259h-1.774v-1.3h1.774V56.259
		L265.123,56.259z"/>
	<path fill="#FFFFFF" d="M270.227,59.667c0-0.767-0.336-1.446-1.153-1.446s-1.152,0.679-1.152,1.446c0,0.76,0.335,1.438,1.152,1.438
		S270.227,60.427,270.227,59.667L270.227,59.667z M266.087,59.667c0-1.705,1.287-2.69,2.985-2.69c1.692,0,2.984,0.985,2.984,2.69
		c0,1.694-1.292,2.681-2.984,2.681C267.375,62.348,266.087,61.361,266.087,59.667L266.087,59.667z"/>
	<path fill="#FFFFFF" d="M272.817,57.095h1.616v0.948h0.019c0.354-0.74,1.066-1.066,1.871-1.066c1.401,0,1.961,0.985,1.961,2.051
		v3.2h-1.773v-2.482c0-0.966-0.334-1.291-0.817-1.291c-0.729,0-1.102,0.503-1.102,1.605v2.167h-1.774V57.095L272.817,57.095z"/>
	<path fill="#FFFFFF" d="M170.852,71.453c-0.171,0-0.31-0.14-0.31-0.31V45.71c0-0.171,0.139-0.31,0.31-0.31
		c0.17,0,0.309,0.139,0.309,0.31v25.434C171.161,71.313,171.022,71.453,170.852,71.453L170.852,71.453z"/>
	<g>
		<g>
			<path id="SVGID_1_" fill="#FFFFFF" d="M103.199,69.423c2.274-0.027,4.43-0.36,6.338-1.001c0.482-0.163,0.938-0.341,1.374-0.537
				c-0.53,1.298-1.312,2.378-2.326,3.184c-2.007,1.479-4.375,2.491-6.946,2.879C102.283,72.837,102.802,71.268,103.199,69.423
				 M92.503,72.576c-0.047-0.04-0.098-0.076-0.156-0.104c-0.895-0.435-1.256-2.429-0.791-5.477c1.719,0.772,3.59,1.385,5.555,1.805
				c1.49,0.318,2.976,0.515,4.426,0.591c-0.71,3.095-1.625,4.719-2.229,4.719c-0.038,0-0.075,0.007-0.112,0.013
				C96.803,74.104,94.532,73.554,92.503,72.576 M84.204,62.722c-0.138-0.522-0.224-1.057-0.26-1.597
				c0.538,0.764,1.193,1.513,1.973,2.233c1.178,1.087,2.576,2.061,4.135,2.896c-0.319,1.78-0.408,3.392-0.207,4.694
				C87.16,68.914,85.15,66.042,84.204,62.722 M104.213,58.399c0-0.629-0.01-1.26-0.028-1.889c2.003-0.133,3.858-0.652,5.375-1.526
				c1.406,2.781,2.161,5.716,2.153,8.485c-0.001,0.802-0.069,1.564-0.197,2.286c-0.723,0.442-1.556,0.826-2.492,1.142
				c-1.664,0.559-3.536,0.865-5.52,0.916C103.982,64.95,104.213,61.629,104.213,58.399 M97.45,67.226
				c-1.994-0.427-3.876-1.061-5.583-1.861c0.559-2.521,1.603-5.574,3.256-8.965c0.24-0.491,0.485-0.974,0.735-1.447
				c1.156,0.52,2.414,0.932,3.734,1.213c1.002,0.215,2.004,0.333,2.985,0.365c0.018,0.604,0.026,1.226,0.026,1.868
				c0,3.79-0.303,6.938-0.741,9.395C100.422,67.732,98.941,67.545,97.45,67.226 M87.01,62.176c-1.367-1.264-2.307-2.602-2.786-3.931
				c0.379-1.49,1.114-2.983,2.195-4.415c1.026-1.359,2.3-2.581,3.764-3.631c0.422,0.763,1.013,1.508,1.765,2.212
				c0.716,0.671,1.55,1.279,2.475,1.811c-0.254,0.482-0.504,0.974-0.748,1.473c-1.427,2.926-2.594,6.066-3.279,8.915
				C89.126,63.894,87.985,63.078,87.01,62.176 M103.12,47.216c1.83,1.363,3.507,3.121,4.91,5.176
				c0.267,0.391,0.517,0.787,0.756,1.188c-1.287,0.742-2.913,1.186-4.667,1.312C103.97,52.114,103.641,49.44,103.12,47.216
				 M99.928,54.591c-1.166-0.248-2.273-0.607-3.292-1.055c1.501-2.626,3.146-4.911,4.766-6.61c0.506,1.993,0.931,4.669,1.11,7.992
				C101.659,54.884,100.79,54.775,99.928,54.591 M93.049,51.236c-0.665-0.623-1.171-1.272-1.511-1.925
				c1.509-0.908,3.178-1.647,4.956-2.182c1.058-0.317,2.128-0.554,3.195-0.717c-1.541,1.728-3.08,3.921-4.49,6.399
				C94.394,52.345,93.67,51.818,93.049,51.236 M89.587,46.107c-0.023,0.083-0.045,0.164-0.064,0.25
				c-0.163,0.76-0.144,1.536,0.049,2.308c-1.733,1.195-3.239,2.608-4.438,4.195c-0.365,0.484-0.693,0.976-0.989,1.473
				C85.038,51.038,86.978,48.169,89.587,46.107 M91.098,46.693c0.179-0.835,0.681-1.582,1.458-2.199
				c1.878-0.561,4.065-0.427,6.361,0.416c-0.966,0.168-1.933,0.391-2.888,0.677c-1.775,0.535-3.45,1.262-4.986,2.147
				C91.009,47.382,91.026,47.034,91.098,46.693 M104.156,44.572c0.554-0.357,1.062-0.602,1.488-0.703
				c0.806,0.323,1.606,0.736,2.366,1.259C106.793,44.823,105.497,44.637,104.156,44.572 M101.446,42.849
				c0.654,0.073,1.349,0.185,2.064,0.353c-0.447,0.24-0.913,0.543-1.385,0.904C101.915,43.629,101.688,43.209,101.446,42.849
				 M99.701,43.481c-0.728-0.28-1.448-0.495-2.158-0.649c0.569-0.064,1.146-0.1,1.731-0.101c0.274,0.004,0.609,0.334,0.962,0.97
				C100.06,43.625,99.881,43.549,99.701,43.481 M81.99,58.426c0,1.646,0.237,3.237,0.668,4.745c0.026,0.102,0.05,0.203,0.08,0.305
				c0.006,0.019,0.014,0.036,0.022,0.056c2.184,7.059,8.771,12.202,16.538,12.202c3.591,0,6.933-1.1,9.702-2.982
				c0.027-0.015,0.054-0.029,0.081-0.048c0.164-0.111,0.324-0.228,0.478-0.353c3.184-2.352,5.535-5.767,6.526-9.72
				c0.056-0.182,0.104-0.366,0.144-0.553c0.009-0.044,0.013-0.089,0.014-0.131c0.236-1.137,0.359-2.313,0.359-3.519
				c0-2.336-0.457-4.603-1.36-6.735c-0.172-0.41-0.646-0.601-1.053-0.429c-0.41,0.173-0.602,0.646-0.428,1.055
				c0.817,1.934,1.231,3.99,1.231,6.109c0,1.3-0.161,2.562-0.459,3.769c-0.238,0.763-0.657,1.467-1.233,2.107
				c0.014-0.273,0.024-0.549,0.024-0.831c0.007-3.088-0.847-6.349-2.432-9.415c1.162-0.997,1.901-2.229,2.157-3.606
				c0.082-0.437-0.208-0.856-0.646-0.937c-0.437-0.082-0.857,0.208-0.938,0.645c-0.169,0.912-0.641,1.748-1.381,2.458
				c-0.231-0.381-0.469-0.758-0.724-1.129c-1.413-2.072-3.091-3.865-4.928-5.293c2.424,0.158,4.666,0.747,6.471,1.755
				c0.284,0.162,0.66,0.156,0.924-0.064c0.343-0.284,0.388-0.793,0.103-1.135c-2.594-3.629-7.078-5.629-12.632-5.629
				C89.755,41.121,81.99,48.885,81.99,58.426"/>
		</g>
		<g>
			<defs>
				<path id="SVGID_2_" d="M103.199,69.423c2.274-0.027,4.43-0.36,6.338-1.001c0.482-0.163,0.938-0.341,1.374-0.537
					c-0.53,1.298-1.312,2.378-2.326,3.184c-2.007,1.479-4.375,2.491-6.946,2.879C102.283,72.837,102.802,71.268,103.199,69.423
					 M92.503,72.576c-0.047-0.04-0.098-0.076-0.156-0.104c-0.895-0.435-1.256-2.429-0.791-5.477c1.719,0.772,3.59,1.385,5.555,1.805
					c1.49,0.318,2.976,0.515,4.426,0.591c-0.71,3.095-1.625,4.719-2.229,4.719c-0.038,0-0.075,0.007-0.112,0.013
					C96.803,74.104,94.532,73.554,92.503,72.576 M84.204,62.722c-0.138-0.522-0.224-1.057-0.26-1.597
					c0.538,0.764,1.193,1.513,1.973,2.233c1.178,1.087,2.576,2.061,4.135,2.896c-0.319,1.78-0.408,3.392-0.207,4.694
					C87.16,68.914,85.15,66.042,84.204,62.722 M104.213,58.399c0-0.629-0.01-1.26-0.028-1.889c2.003-0.133,3.858-0.652,5.375-1.526
					c1.406,2.781,2.161,5.716,2.153,8.485c-0.001,0.802-0.069,1.564-0.197,2.286c-0.723,0.442-1.556,0.826-2.492,1.142
					c-1.664,0.559-3.536,0.865-5.52,0.916C103.982,64.95,104.213,61.629,104.213,58.399 M97.45,67.226
					c-1.994-0.427-3.876-1.061-5.583-1.861c0.559-2.521,1.603-5.574,3.256-8.965c0.24-0.491,0.485-0.974,0.735-1.447
					c1.156,0.52,2.414,0.932,3.734,1.213c1.002,0.215,2.004,0.333,2.985,0.365c0.018,0.604,0.026,1.226,0.026,1.868
					c0,3.79-0.303,6.938-0.741,9.395C100.422,67.732,98.941,67.545,97.45,67.226 M87.01,62.176
					c-1.367-1.264-2.307-2.602-2.786-3.931c0.379-1.49,1.114-2.983,2.195-4.415c1.026-1.359,2.3-2.581,3.764-3.631
					c0.422,0.763,1.013,1.508,1.765,2.212c0.716,0.671,1.55,1.279,2.475,1.811c-0.254,0.482-0.504,0.974-0.748,1.473
					c-1.427,2.926-2.594,6.066-3.279,8.915C89.126,63.894,87.985,63.078,87.01,62.176 M103.12,47.216
					c1.83,1.363,3.507,3.121,4.91,5.176c0.267,0.391,0.517,0.787,0.756,1.188c-1.287,0.742-2.913,1.186-4.667,1.312
					C103.97,52.114,103.641,49.44,103.12,47.216 M99.928,54.591c-1.166-0.248-2.273-0.607-3.292-1.055
					c1.501-2.626,3.146-4.911,4.766-6.61c0.506,1.993,0.931,4.669,1.11,7.992C101.659,54.884,100.79,54.775,99.928,54.591
					 M93.049,51.236c-0.665-0.623-1.171-1.272-1.511-1.925c1.509-0.908,3.178-1.647,4.956-2.182
					c1.058-0.317,2.128-0.554,3.195-0.717c-1.541,1.728-3.08,3.921-4.49,6.399C94.394,52.345,93.67,51.818,93.049,51.236
					 M89.587,46.107c-0.023,0.083-0.045,0.164-0.064,0.25c-0.163,0.76-0.144,1.536,0.049,2.308
					c-1.733,1.195-3.239,2.608-4.438,4.195c-0.365,0.484-0.693,0.976-0.989,1.473C85.038,51.038,86.978,48.169,89.587,46.107
					 M91.098,46.693c0.179-0.835,0.681-1.582,1.458-2.199c1.878-0.561,4.065-0.427,6.361,0.416
					c-0.966,0.168-1.933,0.391-2.888,0.677c-1.775,0.535-3.45,1.262-4.986,2.147C91.009,47.382,91.026,47.034,91.098,46.693
					 M104.156,44.572c0.554-0.357,1.062-0.602,1.488-0.703c0.806,0.323,1.606,0.736,2.366,1.259
					C106.793,44.823,105.497,44.637,104.156,44.572 M101.446,42.849c0.654,0.073,1.349,0.185,2.064,0.353
					c-0.447,0.24-0.913,0.543-1.385,0.904C101.915,43.629,101.688,43.209,101.446,42.849 M99.701,43.481
					c-0.728-0.28-1.448-0.495-2.158-0.649c0.569-0.064,1.146-0.1,1.731-0.101c0.274,0.004,0.609,0.334,0.962,0.97
					C100.06,43.625,99.881,43.549,99.701,43.481 M81.99,58.426c0,1.646,0.237,3.237,0.668,4.745c0.026,0.102,0.05,0.203,0.08,0.305
					c0.006,0.019,0.014,0.036,0.022,0.056c2.184,7.059,8.771,12.202,16.538,12.202c3.591,0,6.933-1.1,9.702-2.982
					c0.027-0.015,0.054-0.029,0.081-0.048c0.164-0.111,0.324-0.228,0.478-0.353c3.184-2.352,5.535-5.767,6.526-9.72
					c0.056-0.182,0.104-0.366,0.144-0.553c0.009-0.044,0.013-0.089,0.014-0.131c0.236-1.137,0.359-2.313,0.359-3.519
					c0-2.336-0.457-4.603-1.36-6.735c-0.172-0.41-0.646-0.601-1.053-0.429c-0.41,0.173-0.602,0.646-0.428,1.055
					c0.817,1.934,1.231,3.99,1.231,6.109c0,1.3-0.161,2.562-0.459,3.769c-0.238,0.763-0.657,1.467-1.233,2.107
					c0.014-0.273,0.024-0.549,0.024-0.831c0.007-3.088-0.847-6.349-2.432-9.415c1.162-0.997,1.901-2.229,2.157-3.606
					c0.082-0.437-0.208-0.856-0.646-0.937c-0.437-0.082-0.857,0.208-0.938,0.645c-0.169,0.912-0.641,1.748-1.381,2.458
					c-0.231-0.381-0.469-0.758-0.724-1.129c-1.413-2.072-3.091-3.865-4.928-5.293c2.424,0.158,4.666,0.747,6.471,1.755
					c0.284,0.162,0.66,0.156,0.924-0.064c0.343-0.284,0.388-0.793,0.103-1.135c-2.594-3.629-7.078-5.629-12.632-5.629
					C89.755,41.121,81.99,48.885,81.99,58.426"/>
			</defs>
			<clipPath id="SVGID_3_">
				<use xlink:href="#SVGID_2_"  overflow="visible"/>
			</clipPath>
			<rect x="81.99" y="41.121" clip-path="url(#SVGID_3_)" fill="#FFFFFF" width="34.612" height="34.612"/>
		</g>
	</g>
</g>
</svg>
